# xmcd
#
# Track frame offsets:
# 150
# 19022
# 37366
# 52606
# 66291
# 84537
# 106489
# 126261
# 144456
# 162082
# 181133
# 199328
#
# Disc length: 2925 seconds
#
#
# Revision: 0
# Processed by: cddbd v1.5PL3 Copyright (c) Steve Scherf et al.
# Submitted via: FreeRIP 2.53 
#
DISCID=a40b6b0c
DTITLE=Montgomery Gentry - My Town
DYEAR=1900
DGENRE=Country
TTITLE0=My Town
TTITLE1=Break My Heart Again
TTITLE2=Scarecrow
TTITLE3=Bad For Good
TTITLE4=Speed
TTITLE5=Hell Yeah
TTITLE6=Lonesome
TTITLE7=Why Do I Feel Like Running
TTITLE8=Free Fall
TTITLE9=Lie Before You Leave
TTITLE10=For The Money
TTITLE11=Good Clean Fun
EXTD=
EXTT0=
EXTT1=
EXTT2=
EXTT3=
EXTT4=
EXTT5=
EXTT6=
EXTT7=
EXTT8=
EXTT9=
EXTT10=
EXTT11=
PLAYORDER=
